<svg width="1992" height="592" viewBox="0 0 1992 592" fill="none" xmlns="http://www.w3.org/2000/svg">
<g clip-path="url(#clip0_221_12)">
<path d="M586.2 49.7C580.6 37.2 564.6 36.7 557.9 48.5C526.9 102.4 471.4 136 408 136H328C222 136 136 222 136 328C136 335 136.8 341.7 137.5 348.5C201.3 302.8 293.4 264 424 264C432.8 264 440 271.2 440 280C440 288.8 432.8 296 424 296C172.6 296 66 450.1 42.4 508C35.8 524.3 43.6 542.9 59.9 549.6C76.3 556.4 94.9 548.5 101.7 532.3C103.2 528.7 122.6 484.4 173.6 441.7C206 485.6 267.6 527.5 348.5 518.9C505.5 507.5 616 366.7 616 194.3C616 144.1 605.2 92.1 586.2 49.7V49.7Z" fill="#07B9AE"/>
</g>
<path d="M866.748 281.1C862.214 281.233 858.681 280.033 856.148 277.5C853.614 274.967 852.348 271.7 852.348 267.7C852.348 264.633 853.281 261.967 855.148 259.7C856.881 257.433 859.481 256.167 862.948 255.9L868.748 255.5C879.414 254.833 884.748 249.233 884.748 238.7V152.5C884.748 147.433 886.081 143.567 888.748 140.9C891.414 138.1 895.214 136.7 900.148 136.7C910.548 136.7 915.748 141.967 915.748 152.5V238.3C915.748 264.833 901.748 278.967 873.748 280.7L866.748 281.1ZM1009.36 281.7C995.495 281.7 983.295 278.7 972.762 272.7C962.362 266.567 954.228 258.1 948.362 247.3C942.628 236.367 939.762 223.567 939.762 208.9C939.762 194.233 942.628 181.5 948.362 170.7C954.228 159.767 962.362 151.3 972.762 145.3C983.162 139.3 995.362 136.3 1009.36 136.3C1023.36 136.3 1035.56 139.3 1045.96 145.3C1056.5 151.3 1064.63 159.767 1070.36 170.7C1076.23 181.5 1079.16 194.167 1079.16 208.7C1079.16 223.367 1076.23 236.167 1070.36 247.1C1064.63 258.033 1056.5 266.567 1045.96 272.7C1035.56 278.7 1023.36 281.7 1009.36 281.7ZM1009.36 255.3C1021.1 255.3 1030.23 251.233 1036.76 243.1C1043.43 234.833 1046.76 223.433 1046.76 208.9C1046.76 194.233 1043.5 182.9 1036.96 174.9C1030.43 166.767 1021.23 162.7 1009.36 162.7C997.762 162.7 988.628 166.767 981.962 174.9C975.428 182.9 972.162 194.233 972.162 208.9C972.162 223.433 975.428 234.833 981.962 243.1C988.628 251.233 997.762 255.3 1009.36 255.3ZM1163.54 281.7C1143.54 281.7 1128.27 276.567 1117.74 266.3C1107.34 256.033 1102.14 240.767 1102.14 220.5V152.5C1102.14 147.433 1103.47 143.567 1106.14 140.9C1108.81 138.1 1112.67 136.7 1117.74 136.7C1128.01 136.7 1133.14 141.967 1133.14 152.5V220.7C1133.14 232.167 1135.74 240.833 1140.94 246.7C1146.14 252.433 1153.67 255.3 1163.54 255.3C1183.67 255.3 1193.74 243.767 1193.74 220.7V152.5C1193.74 141.967 1198.87 136.7 1209.14 136.7C1214.07 136.7 1217.81 138.1 1220.34 140.9C1223.01 143.567 1224.34 147.433 1224.34 152.5V220.5C1224.34 240.767 1219.21 256.033 1208.94 266.3C1198.67 276.567 1183.54 281.7 1163.54 281.7ZM1267.37 281.3C1262.31 281.3 1258.44 279.9 1255.77 277.1C1253.11 274.3 1251.77 270.367 1251.77 265.3V154.3C1251.77 143.767 1257.04 138.5 1267.57 138.5H1316.17C1331.91 138.5 1344.04 142.3 1352.57 149.9C1361.11 157.5 1365.37 168.1 1365.37 181.7C1365.37 192.233 1362.64 201.033 1357.17 208.1C1351.84 215.033 1344.17 219.767 1334.17 222.3C1341.24 224.433 1347.04 229.567 1351.57 237.7L1363.97 260.7C1366.77 265.767 1367.31 270.5 1365.57 274.9C1363.84 279.167 1359.64 281.3 1352.97 281.3C1348.57 281.3 1344.97 280.367 1342.17 278.5C1339.37 276.633 1336.97 273.767 1334.97 269.9L1315.77 234.5C1313.77 230.767 1311.31 228.233 1308.37 226.9C1305.44 225.567 1301.97 224.9 1297.97 224.9H1282.77V265.3C1282.77 270.367 1281.44 274.3 1278.77 277.1C1276.24 279.9 1272.44 281.3 1267.37 281.3ZM1282.77 202.5H1310.57C1327.24 202.5 1335.57 195.833 1335.57 182.5C1335.57 169.3 1327.24 162.7 1310.57 162.7H1282.77V202.5ZM1405.43 281.3C1395.83 281.3 1391.03 276.3 1391.03 266.3V152.3C1391.03 147.233 1392.23 143.367 1394.63 140.7C1397.17 138.033 1400.5 136.7 1404.63 136.7C1408.1 136.7 1410.83 137.433 1412.83 138.9C1414.83 140.233 1417.1 142.5 1419.63 145.7L1484.43 228.3V151.5C1484.43 141.633 1489.23 136.7 1498.83 136.7C1508.43 136.7 1513.23 141.633 1513.23 151.5V266.9C1513.23 271.3 1512.1 274.833 1509.83 277.5C1507.57 280.033 1504.5 281.3 1500.63 281.3C1496.9 281.3 1493.9 280.567 1491.63 279.1C1489.5 277.633 1487.17 275.3 1484.63 272.1L1419.83 189.5V266.3C1419.83 276.3 1415.03 281.3 1405.43 281.3ZM1545.62 281.3C1540.02 281.3 1536.02 279.433 1533.62 275.7C1531.22 271.967 1531.28 267.367 1533.82 261.9L1585.02 149.7C1587.15 145.167 1589.68 141.9 1592.62 139.9C1595.55 137.767 1598.95 136.7 1602.82 136.7C1606.68 136.7 1610.08 137.767 1613.02 139.9C1615.95 141.9 1618.42 145.167 1620.42 149.7L1672.02 261.9C1674.55 267.5 1674.62 272.167 1672.22 275.9C1669.95 279.5 1666.22 281.3 1661.02 281.3C1656.48 281.3 1652.95 280.233 1650.42 278.1C1648.02 275.967 1645.88 272.633 1644.02 268.1L1635.62 248.9H1569.82L1561.62 268.1C1559.62 272.767 1557.48 276.167 1555.22 278.3C1552.95 280.3 1549.75 281.3 1545.62 281.3ZM1602.42 171.5L1580.22 224.7H1625.42L1602.82 171.5H1602.42ZM1708 279.5C1702.8 279.5 1698.87 278.167 1696.2 275.5C1693.54 272.7 1692.2 268.767 1692.2 263.7V153.9C1692.2 148.833 1693.54 144.967 1696.2 142.3C1698.87 139.5 1702.74 138.1 1707.8 138.1C1718.07 138.1 1723.2 143.367 1723.2 153.9V253.3H1776.8C1785.74 253.3 1790.2 257.633 1790.2 266.3C1790.2 275.1 1785.74 279.5 1776.8 279.5H1708Z" fill="#07B9AE"/>
<path d="M717.471 462.85C714.071 462.85 711.471 461.9 709.671 460C707.871 458.1 706.971 455.45 706.971 452.05V365.2C706.971 361.7 707.921 359.05 709.821 357.25C711.721 355.35 714.421 354.4 717.921 354.4C720.921 354.4 723.271 355 724.971 356.2C726.771 357.4 728.421 359.35 729.921 362.05L762.021 420.7L794.121 362.05C795.621 359.35 797.221 357.4 798.921 356.2C800.721 355 803.071 354.4 805.971 354.4C809.371 354.4 811.971 355.35 813.771 357.25C815.671 359.05 816.621 361.7 816.621 365.2V452.05C816.621 459.25 813.121 462.85 806.121 462.85C799.021 462.85 795.471 459.25 795.471 452.05V397L770.871 441.25C769.671 443.15 768.371 444.6 766.971 445.6C765.671 446.5 763.921 446.95 761.721 446.95C759.521 446.95 757.721 446.5 756.321 445.6C754.921 444.6 753.671 443.15 752.571 441.25L727.971 397.45V452.05C727.971 459.25 724.471 462.85 717.471 462.85ZM850.218 461.5C842.118 461.5 838.068 457.45 838.068 449.35V367.9C838.068 359.8 842.118 355.75 850.218 355.75H902.568C908.668 355.75 911.718 358.75 911.718 364.75C911.718 370.85 908.668 373.9 902.568 373.9H860.268V398.65H899.118C905.318 398.65 908.418 401.7 908.418 407.8C908.418 413.9 905.318 416.95 899.118 416.95H860.268V443.35H902.568C908.668 443.35 911.718 446.35 911.718 452.35C911.718 458.45 908.668 461.5 902.568 461.5H850.218ZM939.688 462.85C932.488 462.85 928.888 459.1 928.888 451.6V366.1C928.888 362.3 929.788 359.4 931.588 357.4C933.488 355.4 935.988 354.4 939.088 354.4C941.688 354.4 943.738 354.95 945.238 356.05C946.738 357.05 948.438 358.75 950.338 361.15L998.938 423.1V365.5C998.938 358.1 1002.54 354.4 1009.74 354.4C1016.94 354.4 1020.54 358.1 1020.54 365.5V452.05C1020.54 455.35 1019.69 458 1017.99 460C1016.29 461.9 1013.99 462.85 1011.09 462.85C1008.29 462.85 1006.04 462.3 1004.34 461.2C1002.74 460.1 1000.99 458.35 999.088 455.95L950.488 394V451.6C950.488 459.1 946.888 462.85 939.688 462.85ZM1078.73 462.85C1074.93 462.85 1072.03 461.8 1070.03 459.7C1068.03 457.6 1067.03 454.65 1067.03 450.85V374.95H1040.48C1033.98 374.95 1030.73 371.75 1030.73 365.35C1030.73 358.95 1033.98 355.75 1040.48 355.75H1116.83C1123.33 355.75 1126.58 358.95 1126.58 365.35C1126.58 371.75 1123.33 374.95 1116.83 374.95H1090.28V450.85C1090.28 454.65 1089.28 457.6 1087.28 459.7C1085.38 461.8 1082.53 462.85 1078.73 462.85ZM1127.74 462.85C1123.54 462.85 1120.54 461.45 1118.74 458.65C1116.94 455.85 1116.99 452.4 1118.89 448.3L1157.29 364.15C1158.89 360.75 1160.79 358.3 1162.99 356.8C1165.19 355.2 1167.74 354.4 1170.64 354.4C1173.54 354.4 1176.09 355.2 1178.29 356.8C1180.49 358.3 1182.34 360.75 1183.84 364.15L1222.54 448.3C1224.44 452.5 1224.49 456 1222.69 458.8C1220.99 461.5 1218.19 462.85 1214.29 462.85C1210.89 462.85 1208.24 462.05 1206.34 460.45C1204.54 458.85 1202.94 456.35 1201.54 452.95L1195.24 438.55H1145.89L1139.74 452.95C1138.24 456.45 1136.64 459 1134.94 460.6C1133.24 462.1 1130.84 462.85 1127.74 462.85ZM1170.34 380.5L1153.69 420.4H1187.59L1170.64 380.5H1170.34ZM1249.53 461.5C1245.63 461.5 1242.68 460.5 1240.68 458.5C1238.68 456.4 1237.68 453.45 1237.68 449.65V367.3C1237.68 363.5 1238.68 360.6 1240.68 358.6C1242.68 356.5 1245.58 355.45 1249.38 355.45C1257.08 355.45 1260.93 359.4 1260.93 367.3V441.85H1301.13C1307.83 441.85 1311.18 445.1 1311.18 451.6C1311.18 458.2 1307.83 461.5 1301.13 461.5H1249.53ZM1377.26 462.85C1373.46 462.85 1370.56 461.8 1368.56 459.7C1366.56 457.6 1365.56 454.65 1365.56 450.85V366.4C1365.56 358.4 1369.46 354.4 1377.26 354.4C1384.96 354.4 1388.81 358.4 1388.81 366.4V398.2H1438.01V366.4C1438.01 358.4 1441.86 354.4 1449.56 354.4C1457.36 354.4 1461.26 358.4 1461.26 366.4V450.85C1461.26 454.65 1460.26 457.6 1458.26 459.7C1456.26 461.8 1453.36 462.85 1449.56 462.85C1445.86 462.85 1443.01 461.8 1441.01 459.7C1439.01 457.6 1438.01 454.65 1438.01 450.85V417.55H1388.81V450.85C1388.81 458.85 1384.96 462.85 1377.26 462.85ZM1494.75 461.5C1486.65 461.5 1482.6 457.45 1482.6 449.35V367.9C1482.6 359.8 1486.65 355.75 1494.75 355.75H1547.1C1553.2 355.75 1556.25 358.75 1556.25 364.75C1556.25 370.85 1553.2 373.9 1547.1 373.9H1504.8V398.65H1543.65C1549.85 398.65 1552.95 401.7 1552.95 407.8C1552.95 413.9 1549.85 416.95 1543.65 416.95H1504.8V443.35H1547.1C1553.2 443.35 1556.25 446.35 1556.25 452.35C1556.25 458.45 1553.2 461.5 1547.1 461.5H1494.75ZM1574.66 462.85C1570.46 462.85 1567.46 461.45 1565.66 458.65C1563.86 455.85 1563.91 452.4 1565.81 448.3L1604.21 364.15C1605.81 360.75 1607.71 358.3 1609.91 356.8C1612.11 355.2 1614.66 354.4 1617.56 354.4C1620.46 354.4 1623.01 355.2 1625.21 356.8C1627.41 358.3 1629.26 360.75 1630.76 364.15L1669.46 448.3C1671.36 452.5 1671.41 456 1669.61 458.8C1667.91 461.5 1665.11 462.85 1661.21 462.85C1657.81 462.85 1655.16 462.05 1653.26 460.45C1651.46 458.85 1649.86 456.35 1648.46 452.95L1642.16 438.55H1592.81L1586.66 452.95C1585.16 456.45 1583.56 459 1581.86 460.6C1580.16 462.1 1577.76 462.85 1574.66 462.85ZM1617.26 380.5L1600.61 420.4H1634.51L1617.56 380.5H1617.26ZM1696.45 461.5C1692.55 461.5 1689.6 460.5 1687.6 458.5C1685.6 456.4 1684.6 453.45 1684.6 449.65V367.3C1684.6 363.5 1685.6 360.6 1687.6 358.6C1689.6 356.5 1692.5 355.45 1696.3 355.45C1704 355.45 1707.85 359.4 1707.85 367.3V441.85H1748.05C1754.75 441.85 1758.1 445.1 1758.1 451.6C1758.1 458.2 1754.75 461.5 1748.05 461.5H1696.45ZM1787.71 462.85C1783.91 462.85 1781.01 461.8 1779.01 459.7C1777.01 457.6 1776.01 454.65 1776.01 450.85V374.95H1749.46C1742.96 374.95 1739.71 371.75 1739.71 365.35C1739.71 358.95 1742.96 355.75 1749.46 355.75H1825.81C1832.31 355.75 1835.56 358.95 1835.56 365.35C1835.56 371.75 1832.31 374.95 1825.81 374.95H1799.26V450.85C1799.26 454.65 1798.26 457.6 1796.26 459.7C1794.36 461.8 1791.51 462.85 1787.71 462.85ZM1857.29 462.85C1853.49 462.85 1850.59 461.8 1848.59 459.7C1846.59 457.6 1845.59 454.65 1845.59 450.85V366.4C1845.59 358.4 1849.49 354.4 1857.29 354.4C1864.99 354.4 1868.84 358.4 1868.84 366.4V398.2H1918.04V366.4C1918.04 358.4 1921.89 354.4 1929.59 354.4C1937.39 354.4 1941.29 358.4 1941.29 366.4V450.85C1941.29 454.65 1940.29 457.6 1938.29 459.7C1936.29 461.8 1933.39 462.85 1929.59 462.85C1925.89 462.85 1923.04 461.8 1921.04 459.7C1919.04 457.6 1918.04 454.65 1918.04 450.85V417.55H1868.84V450.85C1868.84 458.85 1864.99 462.85 1857.29 462.85Z" fill="#07B9AE"/>
<defs>
<clipPath id="clip0_221_12">
<rect width="576" height="512" fill="white" transform="translate(40 40)"/>
</clipPath>
</defs>
</svg>
